<svg xmlns:dc="http://purl.org/dc/elements/1.1/" xmlns:cc="http://creativecommons.org/ns#" xmlns:rdf="http://www.w3.org/1999/02/22-rdf-syntax-ns#" xmlns:svg="http://www.w3.org/2000/svg" xmlns="http://www.w3.org/2000/svg" xmlns:sodipodi="http://sodipodi.sourceforge.net/DTD/sodipodi-0.dtd" xmlns:inkscape="http://www.inkscape.org/namespaces/inkscape" id="svg2891" version="1.1" inkscape:version="0.47 r22583" width="800" height="400" sodipodi:docname="logoPH.svg" style="display:inline;enable-background:new">
  <metadata id="metadata2897">
    <rdf:RDF>
      <cc:Work rdf:about="">
        <dc:format>image/svg+xml</dc:format>
        <dc:type rdf:resource="http://purl.org/dc/dcmitype/StillImage"/>
        <dc:title/>
      </cc:Work>
    </rdf:RDF>
  </metadata>
  <defs id="defs2895"/>
  <sodipodi:namedview pagecolor="#ffffff" bordercolor="#666666" borderopacity="1" objecttolerance="10" gridtolerance="10" guidetolerance="10" inkscape:pageopacity="0" inkscape:pageshadow="2" inkscape:window-width="1268" inkscape:window-height="739" id="namedview2893" showgrid="false" inkscape:zoom="0.67657995" inkscape:cx="398.63541" inkscape:cy="258.70431" inkscape:window-x="0" inkscape:window-y="0" inkscape:window-maximized="1" inkscape:current-layer="layer3"/>
  <g inkscape:groupmode="layer" id="layer3" inkscape:label="Ebene" style="display:inline" transform="translate(18.350689,-1491.4673)">
    <g id="g3082" transform="translate(1.3645862,59.121121)">
      <path d="m 644.95334,1713.531 12.88838,-10.7456 -5.65805,-32.0155 -20.59007,0 c 0,0 -8.55848,30.9803 -8.55848,30.9803 0,0 15.21286,10.9213 15.21286,10.9213 1.76733,1.1429 3.00356,2.9154 3.91054,4.7008 0.65942,-1.4379 1.34728,-2.6994 2.79482,-3.8413 z M 330.24582,1587.7498 c 2.33524,-3.1373 6.9348,-5.0564 11.87951,-4.4659 0,0 -11.6938,-28.7214 -11.6938,-28.7214 l -15.62511,0 0,51.1854 2.3468,0 13.0926,-17.9981 z m 40.10239,40.5737 0,-20.0529 c -4.20562,3.4668 -11.39922,4.5818 -17.49092,-0.7671 l 0,21.4442 c 6.27786,-6.084 14.39206,-3.4407 17.49092,-0.6242 z m -40.65169,68.2471 9.76624,-30.7944 c -4.43885,-0.1039 -7.2102,-2.1022 -9.41519,-4.8089 l -12.53624,-16.6224 -2.80895,0 0,52.2257 14.99414,0 z m 202.1036,-134.2621 c 0,0 0,128.7505 0,128.7505 16.1673,-10.9066 22.18919,-39.2554 21.35489,-66.1133 -0.7096,-22.8439 -6.77612,-53.4595 -21.35489,-62.6372 z m -278.47851,140.8725 0,-153.6398 -8.78231,-7.7352 -132.91363,201.5804 92.69536,0 49.00058,-40.2054 z m -231.695735,62.5823 157.957535,-242.5154 -88.062643,0 c 0,0 -58.927312,47.6043 -58.927312,47.6043 -8.790939,7.6948 -23.8658111,0.4603 -20.626835,-12.0242 0,0 31.442736,-70.5567 31.442736,-70.5567 2.085727,-3.6785 5.301904,-5.8026 9.607031,-6.4294 l 210.064233,0 c 7.16157,1.0821 13.41026,8.5954 9.61574,17.0577 l -13.08646,19.9789 103.52713,0 c 0.82011,0.1636 1.58677,0.1535 2.30881,0 l 72.74632,0.01 c 10.6287,0.8704 17.11794,14.3646 5.60292,22.1663 l -9.24415,6.7004 0,145.2883 0.36721,0 c 0,0 18.98896,-57.4962 18.98896,-57.4962 2.41253,-7.2068 12.45917,-11.6352 20.17721,-5.2918 0.002,-13.3991 0.002,-26.7983 0.002,-40.1974 l 0.002,-39.8359 c 0,0 -12.87209,-9.6944 -12.87209,-9.6944 -8.49593,-6.4317 -6.47244,-20.1028 7.14593,-21.6393 l 62.52516,0 c 48.18161,8.8638 71.42771,45.8749 74.5862,84.4349 l 14.70242,-53.1772 c 0,0 -14.17209,-10.3348 -14.17209,-10.3348 -8.64322,-8.2343 -2.8547,-19.8733 7.38344,-20.9229 l 53.14541,0 c 4.68102,1.1154 8.59738,3.2106 10.15899,8.3228 0,0 46.5839,174.3497 46.5839,174.3497 l 20.56456,10.937 c 8.44447,5.8268 6.73405,19.4972 -5.92272,21.7433 l -84.88646,0 c -5.53461,-0.3824 -8.82747,-3.1346 -10.93675,-7.1381 -2.25945,4.1599 -5.74519,6.6534 -10.70905,7.1381 l -65.21523,0 c -3.31931,-0.2157 -6.60497,-1.2888 -9.78643,-5.0197 -6.30786,2.4729 -13.45333,4.4767 -23.20736,5.0197 0,0 -168.48919,0 -168.48919,0 -0.21909,-0.1051 -1.13015,-0.12 -1.35135,0 0,0 -97.34863,0 -97.34863,0 -6.07062,14.677 -12.27037,29.3008 -18.2757,44.0047 -2.04275,3.6339 -5.08759,6.3933 -10.9249,6.7156 l -205.580068,0 c -10.132479,-0.62 -15.65203,-10.8537 -9.580587,-19.1883 z M 623.47886,1510.8465 c -1.62098,-0.3881 -3.34097,-0.4494 -4.85412,-1.2008 -1.46147,-0.657 -2.86923,-1.4353 -4.0972,-2.4703 -2.26859,-2.117 -3.69393,-4.9317 -4.67266,-7.8375 -0.39693,-0.8916 -0.12242,-1.9057 -0.20609,-2.8545 0.0318,-1.363 -0.0741,-2.7461 0.0445,-4.0965 0.52492,-1.7326 1.15217,-3.4573 1.92791,-5.0862 0.89772,-1.1483 1.7026,-2.3883 2.65815,-3.4795 1.86291,-1.4744 3.84514,-2.8795 6.18439,-3.4559 0.81676,-0.2828 1.63198,-0.5743 2.51095,-0.5046 1.44961,-0.019 2.90939,-0.1859 4.35242,-0.1105 3.17232,0.4508 6.33778,1.4482 8.83858,3.5245 1.51633,1.1469 2.58068,2.7675 3.63861,4.3134 0.49458,1.6165 1.23544,3.1744 1.35314,4.8807 0.14445,1.0503 0.40582,2.0993 0.14827,3.1538 -0.1868,1.3173 -0.20349,2.6738 -0.75927,3.906 -0.45748,1.2825 -0.78361,2.6252 -1.5846,3.7501 -0.44263,0.8308 -0.93461,1.6236 -1.66677,2.2316 -1.68048,1.822 -3.66782,3.3681 -5.98396,4.2913 -1.21404,0.4085 -2.49085,0.6671 -3.73659,0.9693 -1.364,0.051 -2.73242,0.1846 -4.09567,0.076 z m -51.97897,-2.4856 c 2.165,-0.5319 4.20525,-1.644 5.82444,-3.1714 0.99927,-1.3412 1.90875,-2.8125 2.36403,-4.4324 0.51695,-2.003 0.41445,-4.0818 0.52353,-6.1298 -0.12056,-1.2748 -0.42946,-2.5602 -0.82301,-3.7827 -0.86867,-1.8529 -1.83836,-3.7446 -3.47138,-5.043 -0.89645,-1.0233 -2.09843,-1.6196 -3.30572,-2.1928 -1.45239,-0.7951 -3.12555,-1.0084 -4.71577,-1.3997 -2.20286,-0.018 -4.40572,-0.037 -6.60859,-0.055 -0.65419,0.3733 -0.44427,1.1119 -0.46784,1.7291 0.0447,7.6323 0.0894,15.2647 0.13412,22.8971 0.50299,1.0581 1.53743,1.5155 2.62805,1.7387 1.61528,0.2128 3.25133,0.4398 4.88271,0.2466 1.02801,-0.014 2.05515,-0.065 3.03543,-0.4046 z m -7.73724,2.1854 c -2.91867,-0.1779 -5.84353,-0.1745 -8.76632,-0.1987 -0.43834,-0.2302 -1.00725,-0.3822 -0.80492,-0.9961 0.67219,-0.076 1.53704,-0.24 2.26179,-0.4726 0.23387,-1.1498 0.55852,-2.2906 0.4429,-3.4754 -0.0346,-7.7349 -0.0692,-15.4698 -0.10381,-23.2047 -0.54212,-0.3669 -1.01634,-0.9141 -1.7322,-0.8195 -0.52609,-0.083 -1.15923,0.06 -1.47033,-0.4774 -0.2071,-0.2617 0.58815,-0.738 0.92947,-0.6511 5.22444,0.027 10.45304,0.011 15.67486,0.064 1.82773,0.3412 3.66291,0.6702 5.39391,1.3601 3.5147,1.1922 6.22274,4.0951 7.68385,7.4507 0.55825,1.2112 0.7017,2.5725 1.08338,3.8475 -0.0491,1.3188 0.11018,2.658 -0.0792,3.9631 -0.40016,2.5319 -1.30435,4.954 -2.62148,7.151 -0.76166,1.0634 -1.74991,1.9656 -2.59876,2.967 -1.26758,0.7628 -2.39786,1.7941 -3.8415,2.2126 -1.13962,0.4212 -2.24772,0.9632 -3.48131,1.0238 -1.49534,0.1763 -2.97676,0.5848 -4.49149,0.4376 -1.16055,-0.038 -2.32044,-0.1072 -3.47881,-0.1824 z m -98.57115,0.1962 c -4.26144,-0.4709 -8.54318,-2.1124 -11.49666,-5.3116 -1.7836,-2.0113 -2.80557,-4.6051 -3.38746,-7.1918 -0.33421,-1.6936 -0.48876,-3.4267 -0.13092,-5.1311 0.48493,-3.3999 1.85401,-6.796 4.47763,-9.1066 1.6303,-1.5905 3.68501,-2.7487 5.83182,-3.4647 1.90699,-0.3921 3.81077,-0.9168 5.77555,-0.7719 2.04103,-0.052 4.08214,-0.012 6.08798,0.4026 1.66978,0.2421 3.34515,0.4551 5.0008,0.7842 0.42888,1.4339 -0.0505,3.2107 0.0605,4.7733 0.35572,0.849 -0.56333,3.1791 -1.22526,1.5304 -0.27,-1.3992 -0.56772,-2.8259 -1.91192,-3.5965 -1.35423,-1.096 -3.2087,-1.3277 -4.83618,-1.8738 -2.23056,0.064 -4.48927,-0.2029 -6.70101,0.1024 -3.25895,0.741 -6.52621,2.7777 -7.61761,6.0914 -0.78463,1.8011 -1.17333,3.7631 -1.01684,5.7265 -0.18634,1.9481 0.19363,3.8804 0.92471,5.6862 0.85881,2.6245 2.61066,4.9092 4.74278,6.6319 1.66587,1.1841 3.61358,1.9392 5.60071,2.3718 1.31663,0.2271 2.65317,0.4612 3.9858,0.1956 1.70713,-0.029 4.75776,-0.2775 4.09426,-2.703 -0.0443,-2.7257 0.0664,-5.4713 -0.10661,-8.1844 -0.17892,-1.6901 -2.31809,-1.2571 -3.37195,-1.8159 0.1557,-0.9415 1.4599,-0.7199 2.22614,-0.718 2.60544,0.031 5.21088,0.062 7.81632,0.093 0.30166,1.6914 -2.57619,0.4187 -2.59764,2.2181 -0.051,3.3636 0.0851,6.7478 -0.0688,10.1056 -0.14985,1.6158 -1.73778,2.0828 -3.06889,2.415 -1.90923,0.5845 -3.91948,0.7683 -5.89832,0.9662 -1.06515,10e-4 -2.12945,-0.1217 -3.18895,-0.2249 z m 164.42543,-2.39 c 1.37514,-0.3736 2.4889,-1.3167 3.66781,-2.072 1.54186,-1.6707 2.70822,-3.7209 3.20139,-5.9534 0.63569,-1.5403 0.29238,-3.2167 0.38054,-4.8309 -0.0513,-1.3999 0.18104,-2.849 -0.35897,-4.181 -0.6122,-1.9706 -1.25451,-4.0188 -2.69567,-5.5585 -0.92067,-1.0509 -1.84076,-2.1827 -3.14973,-2.754 -1.30231,-0.8125 -2.82662,-1.2219 -4.34037,-1.385 -1.60497,-3e-4 -3.21764,-0.015 -4.78999,0.3596 -1.35387,0.2717 -2.44578,1.2311 -3.6656,1.8432 -1.28639,1.0452 -2.2565,2.5076 -2.93094,4.0234 -0.90098,1.8868 -1.20506,3.9968 -1.09593,6.0704 0.0619,1.4687 -0.18093,2.985 0.33548,4.3933 0.39302,2 1.34419,3.8122 2.29713,5.5926 0.94,1.0435 1.78186,2.2097 3.03623,2.9029 1.01091,0.6886 1.87902,1.1011 2.98947,1.4917 1.44231,0.4696 2.95485,0.6346 4.46105,0.4784 0.91012,0 1.81467,-0.039 2.6581,-0.4207 z m -14.87703,-24.1178 c 0,-0.057 -0.0468,-0.104 -0.10404,-0.104 -0.0572,0 -0.10403,0.047 -0.10403,0.104 0,0.057 0.0468,0.1041 0.10403,0.1041 0.0572,0 0.10404,-0.047 0.10404,-0.1041 z m -248.68125,26.2145 c -3.61135,-0.1918 -7.22886,-0.099 -10.84321,-0.135 -1.20925,-0.032 -1.10115,-1.1978 0.0769,-1.074 1.78168,0.012 1.48679,-2.0531 1.74638,-3.274 -0.0588,-7.9642 -0.1365,-15.9327 -0.20206,-23.8985 -0.77259,-1.1906 -2.48919,-0.076 -3.19166,-1.2055 0.57355,-1.1043 1.99047,-0.4343 2.97227,-0.5953 3.7033,0.031 7.41217,0.1684 11.11219,0.1232 0.87726,-0.126 1.75451,-0.2519 2.63177,-0.3779 1.20908,0.8611 -0.41501,2.3893 0.11627,3.6087 0.0746,0.7188 -0.48613,2.788 -1.19809,1.5766 -0.10143,-0.6372 -0.20284,-1.2744 -0.30428,-1.9116 -1.0287,-0.9582 -2.49098,-0.7237 -3.77731,-0.9077 -1.43202,-0.1014 -2.86837,-0.1373 -4.30379,-0.1201 0,3.6677 0,7.3354 0,11.0032 1.53652,0.2313 3.10019,0 4.64869,0.013 1.00583,-0.03 2.01162,-0.062 3.01746,-0.092 0.45446,-0.7145 1.85836,-1.4488 1.48341,-0.034 -0.087,1.6578 -0.28724,3.3193 -0.45049,4.9628 -0.71576,1.0441 -1.2328,-0.7447 -1.03376,-1.3783 -0.37525,-1.2323 -1.84323,-1.3005 -2.92561,-1.3703 -1.54522,0.022 -3.09012,-0.038 -4.63562,-0.042 0.0129,3.749 -0.0258,7.4982 0.0194,11.2471 0.0564,1.2251 1.4124,1.872 2.51174,1.6964 1.65356,-0.01 3.30786,0.038 4.96077,-0.027 1.31615,-0.2824 1.92613,-1.394 2.12299,-2.6378 -0.0975,-1.0395 1.38635,-1.3727 1.09395,-0.1597 -0.0493,1.552 -0.30688,3.1024 -0.81747,4.5707 -1.03413,0.8496 -2.42718,0.4712 -3.65967,0.5373 -0.39158,-0.014 -0.78299,-0.043 -1.1711,-0.098 z m 46.19161,0 c -4.06432,-0.1911 -8.13901,-0.1002 -12.20812,-0.1371 -0.31137,-0.5485 -0.39133,-1.171 0.40368,-1.0365 0.4795,-0.064 0.959,-0.1272 1.4385,-0.1908 0.2394,-0.7074 0.74493,-1.3615 0.62377,-2.1412 0,-8.2186 0,-16.4372 0,-24.6558 -0.73286,-0.9517 -2.03305,-0.8607 -3.10645,-1.0862 -0.48464,-0.4253 -0.0592,-0.6728 0.34477,-0.9246 1.3374,-0.077 2.72608,0.01 4.0832,-0.01 1.85778,0.012 3.71557,0.024 5.57337,0.036 0.64843,0.5713 0.0931,1.0694 -0.67693,1.0383 -0.57586,0.2096 -1.51898,-0.037 -1.80707,0.6101 -0.24717,0.364 -0.43939,0.7425 -0.35352,1.1949 0.007,7.1833 -0.0135,14.3685 0.0102,21.5506 0.1392,0.7909 0.18002,1.6265 0.38052,2.3896 0.32567,0.3275 0.58528,0.7825 0.95213,1.0304 1.44517,0.1177 2.89118,0.3161 4.33581,0.3833 1.1551,-0.1347 2.31021,-0.2693 3.46531,-0.4039 0.44358,-0.545 1.03519,-1.0067 1.38419,-1.6049 0.21104,-0.726 0.42209,-1.452 0.63314,-2.178 0.49148,-0.1173 0.72597,0.095 0.73602,0.5948 0.23831,0.7681 -0.0718,1.5744 -0.0898,2.3604 -0.0228,0.9778 -0.51697,1.8479 -0.79745,2.7668 -0.73245,0.233 -1.44018,0.6107 -2.2311,0.5016 -1.03032,-0.01 -2.07367,0.065 -3.09413,-0.088 z m 24.98875,0.023 c -0.32082,-0.2742 -0.85052,-0.056 -1.25684,-0.129 -3.38643,-0.015 -6.77286,-0.029 -10.15929,-0.044 -0.26606,-0.3052 -0.6441,-0.6025 -0.21667,-0.9561 0.63633,-0.053 1.36686,-0.1015 1.98369,-0.4058 0.22708,-0.4372 0.39962,-0.9804 0.54216,-1.4698 0.0683,-6.3129 0.18194,-12.6266 0.22191,-18.939 -0.0997,-2.1055 -0.19943,-4.211 -0.29918,-6.3165 -0.38984,-0.2965 -0.64138,-0.9269 -1.2123,-0.7863 -0.48604,-0.052 -1.04115,0.1074 -1.48174,-0.084 -0.34914,-0.2419 -0.81328,-0.45 -0.43578,-0.906 0.16885,-0.4057 0.82866,-0.095 1.21022,-0.1905 4.93281,-0.011 9.86959,0.099 14.79899,-0.084 0.4342,-0.053 1.00427,-0.2524 0.77976,0.4084 -0.0652,1.2645 -0.0276,2.5464 -0.15622,3.8002 -0.12944,0.4132 -0.2589,0.8265 -0.38834,1.2398 -0.52523,-3e-4 -0.83457,-0.2063 -0.77435,-0.7643 -0.10215,-0.4875 -0.0836,-1.0434 -0.26136,-1.488 -0.42224,-0.3241 -0.78703,-0.7799 -1.37021,-0.7351 -1.09674,-0.1825 -2.1968,-0.3184 -3.31069,-0.2597 -1.09821,-2e-4 -2.19643,-6e-4 -3.29465,-8e-4 -0.17863,1.5016 -0.0532,3.0454 -0.10297,4.5621 -0.002,2.1315 0,4.2631 -0.002,6.3946 2.53509,-0.046 5.0702,-0.091 7.60528,-0.1371 0.46194,-0.3798 1.15267,-1.4001 1.63292,-0.524 0.23718,0.7049 -0.36496,1.7819 -0.2646,2.6405 -0.15162,1.0601 -0.11357,2.1753 -0.48724,3.1893 -0.82719,0.2462 -0.76955,-0.84 -0.78776,-1.3958 0.1438,-0.5796 -0.45016,-0.8855 -0.73357,-1.3066 -0.25412,-0.5171 -0.87246,-0.2625 -1.33533,-0.3374 -1.91123,-0.041 -3.82249,-0.082 -5.73374,-0.1224 0.0693,3.8693 0.13872,7.7387 0.20807,11.6081 0.27719,0.3547 0.46616,0.8416 0.79489,1.119 0.80026,0.1725 1.60254,0.3197 2.424,0.2278 1.56259,-0.04 3.1252,-0.08 4.68779,-0.1197 0.42244,-0.3781 1.13361,-0.5268 1.25516,-1.1439 0.31148,-0.6593 0.35393,-1.4395 0.59483,-2.0955 0.30214,-0.307 0.60711,-0.5731 0.95896,-0.1669 0.0681,1.6275 -0.28129,3.2266 -0.58601,4.8155 -0.34827,0.2635 -0.59231,0.7652 -1.00883,0.8726 -1.30627,0.051 -2.61251,0.1029 -3.91878,0.1543 -0.0404,-0.041 -0.0806,-0.083 -0.12111,-0.124 z m 62.60764,-0.025 c -3.85455,-0.1911 -7.72022,-0.094 -11.57983,-0.1285 -0.26052,-0.3463 -0.2022,-0.9401 0.28125,-0.9965 0.52072,-0.1262 1.1406,-0.1132 1.60075,-0.3244 0.26338,-0.5984 0.80946,-1.1237 0.68501,-1.8221 0.0419,-7.4626 0.1052,-14.9263 0.13371,-22.3883 -0.11565,-0.8442 -0.13546,-1.7255 -0.30849,-2.5474 -0.26196,-0.3124 -0.41645,-0.8051 -0.91201,-0.7252 -0.67082,-0.1219 -1.39844,-0.1292 -2.03526,-0.3197 -0.57832,-0.3019 -0.0629,-0.6039 0.23037,-0.9058 0.41876,-0.1476 0.95506,0 1.41829,-0.043 4.05155,0.056 8.10543,0.1453 12.15554,0.1812 0.9448,-0.1489 1.88961,-0.2978 2.83442,-0.4467 0.44549,0.2352 0.26154,0.6887 0.22153,1.0923 -0.17241,1.4435 -0.33379,2.8887 -0.54843,4.3267 -0.45131,0.2816 -0.80218,0.2602 -0.9797,-0.2845 -0.13371,-0.4573 0.10151,-1.036 -0.12572,-1.4579 -0.30819,-0.2942 -0.48202,-0.8104 -0.87645,-0.9621 -2.36044,-0.3859 -4.76648,-0.3454 -7.15016,-0.4865 0,3.6919 0,7.3839 0,11.0758 2.41685,0 4.83369,0 7.25053,0 0.51227,-0.3346 0.96303,-1.0881 1.62076,-0.9646 0.55324,0.6161 -0.0221,1.4204 -0.009,2.1286 -0.1878,1.024 -0.0503,2.0877 -0.17442,3.1036 -0.20999,0.2917 -0.166,1.1513 -0.65992,0.8081 -0.52099,-0.067 -0.3501,-0.7219 -0.51063,-1.0952 -0.0883,-0.4252 -0.17652,-0.8504 -0.26479,-1.2756 -0.63536,0.2686 -0.5368,-0.4713 -0.94663,-0.5233 -2.10212,-0.049 -4.20421,-0.097 -6.30633,-0.1453 0,3.891 0,7.7821 0,11.6732 0.36673,0.3718 0.66658,0.8845 1.07461,1.1694 1.79489,0.03 3.59389,0.1277 5.38623,0.1166 0.54874,-0.1109 1.14824,-0.1162 1.66652,-0.2905 0.39806,-0.4594 1.07961,-0.7437 1.14322,-1.4096 0.25639,-0.6852 0.28061,-1.5668 0.86358,-2.0463 0.35655,0.2706 0.87323,0.4723 0.62621,1.002 -0.19187,1.5163 -0.3439,3.0561 -0.87854,4.4986 -0.73574,0.2301 -1.44646,0.6077 -2.23911,0.5021 -0.89456,-0.01 -1.80403,0.062 -2.68754,-0.09 z m 34.90893,-6.4088 c -3.60382,-3.608 -7.16986,-7.2531 -10.5788,-11.0467 -1.86725,-1.9949 -3.66955,-4.0498 -5.56757,-6.0159 -0.45274,0.3689 -0.10828,1.0559 -0.19255,1.5718 0.19342,6.4171 0.25012,12.8409 0.64573,19.2497 0.30361,0.3974 0.48368,0.9894 0.85845,1.2746 0.8723,0.093 1.74457,0.1868 2.61684,0.2802 0.41352,0.466 -0.0404,1.001 -0.57127,0.9736 -2.91133,0 -5.82263,0 -8.73393,0 -0.44645,-0.2805 -0.64416,-1.029 0.0545,-1.017 0.71574,-0.1163 1.80923,-0.049 2.24866,-0.6615 0.34491,-0.5519 0.43459,-1.1595 0.37234,-1.8001 0.0133,-8.6465 0.0267,-17.2929 0.0401,-25.9393 0.20789,-0.3946 0.0497,-1.204 0.69735,-1.1003 0.60809,-0.2435 0.84639,0.5599 1.26197,0.8614 2.26572,2.5034 4.65892,4.8887 6.94622,7.3702 3.35626,3.6752 6.83617,7.2602 10.20956,10.9295 1.54255,1.6452 3.09061,3.2852 4.63676,4.927 0.4484,-0.3691 0.11617,-1.0548 0.20531,-1.5696 -0.0829,-6.6246 -0.25622,-13.2475 -0.42592,-19.8702 -0.482,-0.3879 -0.77525,-1.2074 -1.5035,-1.032 -0.69674,-0.022 -1.43727,0.123 -2.01063,-0.368 -0.68076,-0.1186 0.19332,-0.7905 0.49016,-0.824 2.7841,0.017 5.56819,0.034 8.3523,0.052 0.65785,0.3249 0.39895,0.8824 -0.11989,1.1444 -0.51594,0.089 -1.23043,-0.185 -1.61097,0.1511 -0.29167,0.4345 -0.63382,0.854 -0.5089,1.4128 -0.0953,9.0153 -0.19053,18.0305 -0.28578,27.0458 -0.20922,0.4907 -0.86481,0.7648 -1.24697,0.3293 -2.09319,-2.1086 -4.18631,-4.2173 -6.27956,-6.3257 z m -244.94838,5.9968 c -0.68905,-0.1885 -0.088,-0.7477 0.34654,-0.7337 0.91906,-0.036 1.76512,-0.2411 1.94379,-1.2753 0.40796,-0.7562 0.1433,-1.6556 0.22757,-2.4808 0.0527,-7.6933 0.10549,-15.3866 0.15823,-23.0799 -2.05325,0.036 -4.1134,-0.045 -6.16229,0.064 -0.90477,0.1047 -1.80955,0.2094 -2.71432,0.3141 -0.70715,0.7684 -1.31472,1.6234 -1.77557,2.5618 -0.67912,-0.1616 -0.30982,-0.8021 -0.28818,-1.2918 0.20843,-1.0602 0.14559,-2.1837 0.42719,-3.2221 0.23704,-0.3227 0.24311,-1.132 0.63285,-1.133 1.44174,0.3768 2.94969,0.4932 4.43271,0.6003 5.56388,-0.01 11.13131,0.036 16.69297,-0.01 0.97691,-0.1268 1.9538,-0.2536 2.93071,-0.3804 0.46154,0.3258 0.1336,0.9634 0.21261,1.4403 -0.0314,1.3526 -0.0628,2.7051 -0.0942,4.0577 -0.40051,0.4809 -0.82177,0.1426 -1.04214,-0.2983 -0.0995,-0.4553 -0.0454,-0.996 -0.23204,-1.403 -0.95943,-0.8643 -2.27387,-1.2242 -3.54402,-1.1654 -1.9435,-0.065 -3.88698,-0.1307 -5.83046,-0.196 0.0719,8.4466 0.14373,16.8931 0.2156,25.3397 0.23331,0.3687 0.34088,0.8947 0.64512,1.1747 1.02566,0.2799 2.08665,0.388 3.14756,0.3858 0.0864,0.5439 0.002,0.9551 -0.62317,0.9436 -1.01561,0.1788 -2.0718,0.028 -3.10351,0.076 -2.07274,0 -4.14545,0 -6.21819,-0.01 -0.12846,-0.095 -0.25694,-0.1897 -0.38538,-0.2845 z m 24.38601,0.1493 c -0.50715,-0.8876 0.17628,-0.9738 0.85207,-0.878 0.6063,0.1395 0.93723,-0.4986 1.39717,-0.7724 0.20531,-1.4513 0.3789,-2.9047 0.30836,-4.3733 0.0106,-7.2381 0.0214,-14.4762 0.0321,-21.7143 -0.38002,-0.3152 -0.68597,-0.8094 -1.10875,-1.0214 -0.71497,-0.047 -1.73031,0.159 -2.22021,-0.3399 -0.33514,-1.0973 0.97508,-0.6919 1.65252,-0.7808 2.71113,0 5.43925,-0.1291 8.13969,0.057 0.39413,0.141 0.29762,1.1266 -0.32135,0.9234 -0.86792,0.081 -2.05353,0.3148 -2.17516,1.3271 -0.004,3.3495 -0.0329,6.6992 -0.0133,10.0485 5.54855,0 11.09708,0 16.64563,0 0,-3.3831 0,-6.7662 0,-10.1493 -0.38934,-0.3946 -0.61464,-1.0735 -1.2686,-1.0096 -0.59893,-0.1577 -1.31869,-0.078 -1.83693,-0.3943 -0.59234,-0.2513 0.0771,-0.8651 0.47251,-0.8251 2.9733,-0.011 5.94663,-0.021 8.91993,-0.031 0.41552,0.2546 0.83855,0.906 0.10264,0.9806 -0.54587,0.1254 -1.1937,0.092 -1.67548,0.3171 -0.30048,0.5134 -0.81196,0.963 -0.66054,1.6128 -0.0323,6.8405 -0.10726,13.6826 -0.11303,20.5221 0.13922,1.6306 0.27842,3.2612 0.41762,4.8918 0.41167,0.3839 0.88653,0.6043 1.45695,0.5777 0.62785,0.067 1.25568,0.1345 1.88354,0.2017 0.006,0.5357 0.16502,1.2253 -0.61113,0.978 -3.11608,0 -6.23216,-0.01 -9.34825,-0.014 -0.92801,-0.6319 -0.0359,-1.0652 0.76828,-1.118 0.52524,-0.1104 1.16218,-0.095 1.16988,-0.7876 0.50761,-1.068 0.23119,-2.2669 0.30378,-3.4075 0.006,-3.4562 0.0127,-6.9123 0.0191,-10.3685 -5.58637,0.035 -11.17279,0.067 -16.75915,0.1041 0.0799,4.4285 0.16579,8.8568 0.25314,13.2851 0.33482,0.3199 0.41839,1.0508 0.94,1.0651 0.82111,0.088 1.64219,0.1759 2.4633,0.2638 0.5616,0.457 -0.19201,0.7911 -0.57704,0.9823 -3.13138,-0.013 -6.26275,-0.026 -9.39413,-0.038 -0.051,-0.02 -0.0659,-0.092 -0.11519,-0.1151 z m 335.62769,0.01 c -0.62949,-1.0178 0.50574,-0.9051 1.15552,-1.005 0.56739,0 1.12547,-0.5561 1.14023,-1.1179 0.45022,-2.4034 0.18551,-4.8579 0.26065,-7.2881 0.008,-6.0874 0.0156,-12.1747 0.0233,-18.262 -0.4435,-0.4076 -0.65338,-1.2963 -1.39191,-1.0965 -0.64903,-0.01 -1.35383,0.1466 -1.80492,-0.4416 -0.47592,-0.3445 0.67167,-0.9314 1.1217,-0.7357 4.54054,0.04 9.08787,0.1764 13.62416,0.1569 0.89855,-0.1411 1.79709,-0.2823 2.69564,-0.4234 0.63838,0.4003 0.11718,1.2027 0.16227,1.8087 -0.15127,1.2668 -0.2971,2.5345 -0.48507,3.7965 -1.16097,0.3556 -0.96716,-1.0526 -1.16994,-1.8233 0.0189,-0.6619 -0.7972,-0.9702 -1.31149,-1.1499 -2.49335,-0.1556 -4.99076,-0.2279 -7.4871,-0.3167 0,3.6628 0,7.3257 0,10.9885 2.61399,0 5.22795,0 7.84194,0 0.46999,-0.5127 1.86456,-1.6289 1.67653,-0.2668 -0.18092,1.8238 -0.26787,3.6612 -0.57937,5.4686 -1.24453,0.1534 -0.65648,-1.5117 -1.29534,-2.1107 -0.28518,-0.6818 -0.93056,-0.838 -1.59257,-0.9698 -2.02834,-0.06 -4.07005,-0.057 -6.10252,-0.041 0.0575,4.211 0.1151,8.422 0.17265,12.633 0.36779,0.5507 0.6275,1.2782 1.42408,1.1276 0.6729,0.072 1.34578,0.1441 2.01868,0.2161 0.48083,0.5499 -0.047,1.0452 -0.65663,0.9892 -3.10512,0 -6.21024,-0.01 -9.31535,-0.012 l -0.0749,-0.075 -0.0503,-0.05 0,0 z" style="fill:#e9920b;fill-opacity:1;display:inline;enable-background:new" id="path2873"/>
      <path d="m 588.9254,1687.711 c 0,0 -4.13803,15.1415 -4.13803,15.1415 0,0 -9.97504,6.3317 -9.97504,6.3317 6.02466,-5.598 11.68405,-16.1677 14.11307,-21.4732 z m -346.47809,87.5548 19.31645,-46.8604 100.62207,0 c 1.22215,-0.4288 2.40985,-0.6411 3.4618,0 l 165.71713,0 c 12.45555,-0.6736 21.5998,-3.6396 28.96573,-7.8368 -1.2983,5.3023 3.21841,7.7272 6.29265,7.8368 l 63.36517,0 c 8.11895,-0.6658 8.00961,-8.4183 4.40727,-10.9185 l -18.57667,-13.3592 10.88066,-39.2878 30.49622,0 7.03594,40.2952 -15.46342,12.8047 c -3.61181,3.8803 -1.62728,9.5419 4.01909,10.4656 l 83.59085,0 c 7.66531,-0.6829 7.62122,-8.6169 3.70921,-11.1425 l -22.31851,-11.8752 -46.8173,-175.9833 c -0.78646,-2.6594 -3.05322,-4.4885 -5.7912,-4.7 l -51.98589,0 c -5.32797,0.7912 -7.37768,7.1139 -3.44641,10.6342 0,0 16.99042,12.527 16.99042,12.527 l -28.56072,104.9711 c 1.20554,-8.7408 1.40098,-12.8101 1.40098,-18.6459 0,0 0,-20.0161 0,-20.0161 0,-37.5253 -17.77512,-79.1359 -69.07937,-89.4703 l -62.42112,0 c -5.10189,0.3825 -8.35301,6.0623 -4.08326,10.6519 l 16.07331,12.0927 0,158.1336 -7.94537,6.0548 0,-72.7544 c -0.98869,-7.4719 -10.41996,-7.4215 -12.63372,-1.7426 l -21.45941,65.2562 -9.693,0 0,-157.7801 c 0,0 12.92361,-9.0712 12.92361,-9.0712 4.6218,-4.3129 1.93873,-10.8409 -4.70483,-10.8409 0,0 -70.86524,0 -70.86524,0 -1.39571,0.5189 -1.48704,0.5357 -2.96392,0 0,0 -112.67591,0 -112.67591,0 -0.79535,-0.01 -1.38504,0.089 -2.11838,0.5157 l 18.79113,-28.5842 c 2.25398,-4.392 -0.60334,-8.7401 -5.7205,-9.0721 l -206.315858,0 c -1.615989,0.1004 -4.396702,0.3529 -6.071863,3.3966 0,0 -30.67367,68.5833 -30.67367,68.5833 -2.399703,6.9429 4.694318,10.3965 9.642543,7.6432 l 61.520882,-49.7649 101.183966,0 c 0,0 -164.220327,252.1912 -164.220327,252.1912 -2.315707,3.7017 -0.507479,8.6931 4.683165,9.4469 l 206.109392,0 c 3.28275,-0.2654 4.76708,-2.5949 5.40623,-3.7943 z m -141.97243,-26.0534 144.00684,-218.5238 c -0.44304,1.0511 0.19265,3.0241 1.33086,4.1243 l 13.64711,12.3111 0,158.5506 c 0,0 -52.67091,43.5378 -52.67091,43.5378 0,0 -106.3139,0 -106.3139,0 z m 425.10685,-197.0875 c 26.44787,9.8284 32.56816,43.1708 33.67457,66.6917 l 0.0498,10.5441 c -0.57761,46.5332 -17.13084,66.5229 -33.72437,71.686 l 0,-148.9218 z m 117.17595,54.9139 8.10842,31.8963 -16.79852,0 c 0,0 8.6901,-31.8963 8.6901,-31.8963 z m -274.37313,29.2638 c -1.44872,-6.3999 -10.03468,-6.966 -12.53806,-1.2987 l -21.45235,67.3927 -25.82983,0 0,-63.8776 12.04259,0 14.21237,18.864 c 4.05471,4.8533 10.93061,2.4846 11.82192,-2.7275 l 0,-59.6909 c -1.20142,-7.6758 -9.4378,-6.5963 -11.73967,-3.4028 l -14.36932,20.012 -11.96789,0 0,-62.8372 26.12679,0 c 0,0 21.59034,53.2867 21.59034,53.2867 2.89164,5.1785 11.8302,4.1636 12.31118,-2.8431 l 0,-59.308 7.90667,5.6776 0,161.0539 -8.11474,6.4733 0,-76.7744 z" style="fill:#ffffff;fill-opacity:1;display:inline;enable-background:new" id="path2900"/>
      <path d="m 201.92823,1511.4648 -115.117904,-0.077 -62.694319,50.6504 30.449064,-68.3363 206.730609,0 -172.394205,261.6485 120.283995,0 56.62037,-46.8298 0,-164.0355 -15.11673,-13.5386 111.34929,0 0.0921,68.143 -22.9345,-56.4911 -37.1859,0 0,75.1134 22.01499,0 15.95786,-22.2239 0,58.1511 -16.03274,-21.2582 -21.83608,0 -0.10516,76.0497 37.21179,0 c 0,0 22.62837,-70.9352 22.62837,-70.9352 l -0.0188,84.8759 -104.48632,0 -20.94842,50.7692 -204.86659,0 c 0,0 170.39923,-261.6757 170.39923,-261.6757 z m 181.0025,198.1102 0.01,-167.0805 -15.971,-11.5479 70.17919,0 -15.07354,10.6096 -0.009,166.8744 20.92125,0 22.7516,-68.9753 0.022,82.916 -98.93747,0 16.10667,-12.7963 z m 103.83857,-1.0404 0.007,-164.0302 -17.88538,-13.5578 60.76534,0 c 30.59365,4.8578 61.99318,29.6154 63.65051,80.2111 l 0.0498,26.2169 c -3.3372,55.7826 -26.92386,83.4371 -61.82989,84.9967 l -62.96323,0 18.20558,-13.8367 z m 78.92412,-73.865 0,-8.1147 c 0.19941,-28.2992 -6.54227,-75.896 -46.66591,-82.0838 l 0,164.0213 c 32.43558,-3.8318 44.94931,-37.0835 46.66591,-73.8228 z m 24.80628,71.948 43.81675,-161.1745 -19.88866,-14.6006 50.33007,-0.1057 c 0,0 47.56706,178.6107 47.56706,178.6107 l 24.4377,13.0238 c 0,0 -82.90549,0 -82.90549,0 l 17.45586,-14.6697 -8.4353,-48.8966 -40.95936,-0.1015 -13.20199,47.9577 22.13235,15.7101 -64.42917,0 24.08018,-15.7537 z m 52.41861,-124.6716 -17.17873,63.0231 33.34736,0 c 0,0 -16.16863,-63.0231 -16.16863,-63.0231 z m -514.64701,95.6486 0.018,-16.7158 -16.17474,6.8085 c 0,0 -37.858722,76.9302 -37.858722,76.9302 l 54.015422,-67.0229 z m 25.26396,-36.9167 -0.35114,-17.4327 -15.96456,5.4987 0.26963,17.4233 16.04607,-5.4893 z m 24.52233,-38.8284 c 0,0 37.96507,-77.0607 37.96507,-77.0607 l -54.13078,67.1617 0,16.7142 16.16571,-6.8152 z" style="fill:#ba0100;fill-opacity:1;display:inline;enable-background:new" id="path3843"/>
    </g>
  </g>
</svg>